# AST/ASF file generated using VICON BodyLanguage
# -----------------------------------------------
:version 1.10
:name VICON
:units
  mass 1.0
  length 0.45
  angle deg
:documentation
   .ast/.asf automatically generated from VICON data using
   VICON BodyBuilder and BodyLanguage model FoxedUp or BRILLIANT.MOD
:root
   order TX TY TZ RX RY RZ
   axis XYZ
   position 0 0 0  
   orientation 0 0 0 
:bonedata
  begin
     id 1 
     name lhipjoint
     direction 0.822369 -0.411937 0.392449 
     length 3.8167 
     axis 0 0 0  XYZ
  end
  begin
     id 2 
     name lfemur
     direction 0.34202 -0.939693 0  
     length 6.16791  
     axis 0 0 20  XYZ
    dof rx ry rz
    limits (-160.0 20.0)
           (-70.0 70.0)
           (-60.0 70.0)
  end
  begin
     id 3 
     name ltibia
     direction 0.34202 -0.939693 0   
     length 7.07101   
     axis 0 0 20   XYZ
    dof rx
    limits (-10.0 170.0)
  end
  begin
     id 4 
     name lfoot
     direction 0.028254 -0.0776273 0.996582   
     length 1.66799   
     axis -90 7.62852e-016 20   XYZ
    dof rx rz
    limits (-45.0 90.0)
           (-70.0 20.0)
  end
  begin
     id 5 
     name ltoes
     direction 1.53483e-011 -4.21688e-011 1   
     length 0.851674   
     axis -90 7.62852e-016 20   XYZ
    dof rx
    limits (-90.0 20.0)
  end
  begin
     id 6 
     name rhipjoint
     direction -0.822466 -0.411836 0.392353   
     length 3.81764  
     axis 0 0 0  XYZ 
  end
  begin
     id 7 
     name rfemur
     direction -0.34202 -0.939693 0   
     length 6.28636   
     axis 0 0 -20   XYZ
    dof rx ry rz
    limits (-160.0 20.0)
           (-70.0 70.0)
           (-70.0 60.0)
  end
  begin
     id 8 
     name rtibia
     direction -0.34202 -0.939693 0   
     length 6.85621   
     axis 0 0 -20   XYZ
    dof rx
    limits (-10.0 170.0)
 end
 begin
     id 9 
     name rfoot
     direction -0.0553036 -0.151945 0.98684   
     length 1.57293  
     axis -90 -7.62852e-016 -20   XYZ
    dof rx rz
    limits (-45.0 90.0)
           (-20.0 70.0)
  end
  begin
     id 10 
     name rtoes
     direction -1.53592e-011 -4.21964e-011 1   
     length 0.802812   
     axis -90 -7.62852e-016 -20   XYZ
    dof rx
    limits (-90.0 20.0)
  end
  begin
     id 11 
     name lowerback
     direction 0.00654913 0.996475 -0.0836396   
     length 1.97212   
     axis 0 0 0   XYZ
    dof rx ry rz
    limits (-20.0 45.0)
           (-30.0 30.0)
           (-30.0 30.0)
  end
  begin
     id 12 
     name upperback
     direction 0.0111875 0.994527 0.103877   
     length 1.89704   
     axis 0 0 0   XYZ
    dof rx ry rz
    limits (-20.0 45.0)
           (-30.0 30.0)
           (-30.0 30.0)
  end
  begin
     id 13 
     name thorax
     direction 0.00473652 0.989004 0.147814   
     length 1.94516   
     axis 0 0 0   XYZ
    dof rx ry rz
    limits (-20.0 45.0)
           (-30.0 30.0)
           (-30.0 30.0)
  end
  begin
     id 14 
     name lowerneck
     direction -0.00925808 0.999011 0.0434791   
     length 1.81771   
     axis 0 0 0   XYZ
    dof rx ry rz
    limits (-20.0 45.0)
           (-30.0 30.0)
           (-30.0 30.0)
  end
  begin
     id 15 
     name upperneck
     direction 0.00451595 0.964412 -0.264365   
     length 1.80434   
     axis 0 0 0   XYZ
    dof rx ry rz
    limits (-20.0 45.0)
           (-30.0 30.0)
           (-30.0 30.0)
  end
  begin
     id 16
     name head
     direction -0.00110849 0.995756 -0.0920241  
     length 1.84006  
     axis 0 0 0   XYZ
    dof rx ry rz
    limits (-20.0 45.0)
           (-30.0 30.0)
           (-30.0 30.0)
  end
  begin
     id 17 
     name lclavicle
     direction 0.921253 0.385213 0.0538957  
     length 3.67415  
     axis 0 0 0   XYZ
    dof ry rz
    limits (-20.0 10.0)
           (0.0 20.0)
  end
  begin
     id 18 
     name lhumerus
     direction 1 -4.48961e-011 6.73441e-028   
     length 4.32712   
     axis 180 -30 -90   XYZ
    dof rx ry rz
    limits (-60.0 90.0)
           (-90.0 90.0)
           (-90.0 90.0)
  end
  begin
     id 19
     name lradius
     direction 1 -4.48985e-011 -9.53507e-028   
     length 3.28587   
     axis 180 -30 -90   XYZ
    dof rx
    limits (-10.0 170.0)
  end
  begin
     id 20
     name lwrist
     direction 1 -4.48951e-011 -4.67472e-027   
     length 1.64293   
     axis 1.65735e-015 90 90   XYZ
    dof ry
    limits (-180.0 0.0)
 end
  begin
     id 21 
     name lhand
     direction 1 -4.48946e-011 -9.34945e-027   
     length 0.433158   
     axis 5.96574e-015 90 90   XYZ
    dof rx rz
    limits (-90.0 90.0)
           (-45.0 45.0)
  end
  begin
     id 22 
     name lfingers
     direction 1 -4.48882e-011 -1.86989e-026   
     length 0.349224   
     axis 1.19315e-014 90 90   XYZ
    dof rx
    limits (0.0 90.0)
  end
  begin
     id 23
     name lthumb
     direction 0.707107 -6.3493e-011 0.707107   
     length 0.501417   
     axis -90 45 2.85299e-015   XYZ
    dof rx rz
    limits (-45.0 45.0)
           (-45.0 45.0)
  end
  begin
     id 24 
     name rclavicle
     direction -0.884378 0.46502 -0.0403866   
     length 3.50218  
     axis 0 0 0   XYZ 
    dof ry rz
    limits (-10.0 20.0)
           (-20.0 0.0)
  end
  begin
     id 25 
     name rhumerus
     direction -1 -4.48964e-011 1.58188e-027  
     length 4.29104   
     axis 180 30 90   XYZ
    dof rx ry rz
    limits (-90.0 60.0)
           (-90.0 90.0)
           (-90.0 90.0)
  end
  begin
     id 26 
     name rradius
     direction -1 -4.48978e-011 -1.9722e-027   
     length 3.2272   
     axis 180 30 90   XYZ
    dof rx
    limits (-10.0 170.0)
  end
  begin
     id 27 
     name rwrist
     direction -1 -4.48969e-011 -4.67472e-027   
     length 1.6136   
     axis 1.65735e-015 -90 -90   XYZ
    dof ry
    limits (-180.0 0.0)
  end
  begin
     id 28
     name rhand
     direction -1 -4.48846e-011 -9.34945e-027   
     length 0.543623   
     axis 5.96574e-015 -90 -90   XYZ
    dof rx rz
    limits (-90.0 90.0)
           (-45.0 45.0)
  end
  begin
     id 29
     name rfingers
     direction -1 -4.49074e-011 -1.86989e-026   
     length 0.438283   
     axis 1.19315e-014 -90 -90   XYZ
    dof rx
    limits (0.0 90.0)
  end
  begin
     id 30
     name rthumb
     direction -0.707107 -6.34834e-011 0.707107   
     length 0.629289   
     axis -90 -45 -2.85299e-015   XYZ
    dof rx rz
    limits (-45.0 45.0)
           (-45.0 45.0)
  end
:hierarchy
  begin
    root lhipjoint rhipjoint lowerback
    lhipjoint lfemur
    lfemur ltibia
    ltibia lfoot
    lfoot ltoes
    rhipjoint rfemur
    rfemur rtibia
    rtibia rfoot
    rfoot rtoes
    lowerback upperback
    upperback thorax
    thorax lowerneck lclavicle rclavicle
    lowerneck upperneck
    upperneck head
    lclavicle lhumerus
    lhumerus lradius
    lradius lwrist
    lwrist lhand lthumb
    lhand lfingers
    rclavicle rhumerus
    rhumerus rradius
    rradius rwrist
    rwrist rhand rthumb
    rhand rfingers
  end

#!OML:ASF H:\GeneralSubjects\Female5\Project 1\Capture day 1\Session 1\Female5.ASF
:FULLY-SPECIFIED
:DEGREES
48
root -25.1133 15.8435 1.31326 -160.97 76.9515 -173.217
lowerback 10.2861 1.98912 -1.69943
upperback -7.28822 2.5998 0.397132
thorax -13.9362 1.46172 0.80504
lowerneck -16.8468 -5.59528 3.13353
upperneck 34.2116 -8.0307 -0.581312
head 14.4129 -2.67364 -2.02265
rclavicle -3.55095e-015 -1.00138e-014
rhumerus -45.0866 15.0318 -79.4488
rradius 30.0693
rwrist -13.4799
rhand -17.9584 -22.7128
rfingers 7.12502
rthumb 8.31044 -52.5293
lclavicle -3.55095e-015 -1.00138e-014
lhumerus -45.4511 11.1092 68.8645
lradius 36.6932
lwrist -8.5765
lhand -22.8834 29.3392
lfingers 7.12502
lthumb 3.55573 59.2893
rfemur -34.107 -2.24831 28.5012
rtibia 25.2651
rfoot -15.6889 -19.3223
rtoes -32.1423
lfemur 0.54978 -23.3062 -30.5967
ltibia 4.19032
lfoot -33.755 0.813675
ltoes -43.6035
49
root -24.9869 15.8258 1.29503 -160.318 77.8241 -172.94
lowerback 10.4058 1.91942 -1.7549
upperback -7.35175 2.49265 0.381379
thorax -14.0847 1.41649 0.837162
lowerneck -16.8436 -5.41261 3.39235
upperneck 34.1136 -7.80452 -0.735063
head 14.3511 -2.57821 -2.08976
rclavicle -6.32694e-015 8.69683e-015
rhumerus -44.9103 13.7563 -78.2701
rradius 29.5512
rwrist -10.3946
rhand -17.4062 -22.7828
rfingers 7.12502
rthumb 8.84337 -52.5775
lclavicle -6.32694e-015 8.69683e-015
lhumerus -45.1717 10.513 69.4073
lradius 37.2865
lwrist -8.05953
lhand -22.6235 29.2205
lfingers 7.12502
lthumb 3.80672 59.1662
rfemur -34.8852 -1.66599 28.6053
rtibia 22.5537
rfoot -14.8275 -18.9579
rtoes -32.2432
lfemur 1.26763 -23.6003 -30.9239
ltibia 3.42901
lfoot -34.5453 1.37904
ltoes -43.0482
50
root -24.8555 15.8003 1.28743 -159.944 78.6486 -172.98
lowerback 10.7315 1.82717 -2.07349
upperback -7.53853 2.32159 0.45103
thorax -14.526 1.37689 1.11755
lowerneck -16.8351 -5.2053 3.48226
upperneck 34.1187 -7.51864 -0.783788
head 14.3529 -2.4554 -2.07901
rclavicle 1.1566e-014 -9.74045e-015
rhumerus -45.0048 12.8332 -77.3008
rradius 29.3391
rwrist -8.1343
rhand -15.443 -23.878
rfingers 7.12502
rthumb 10.7375 -53.5835
lclavicle 1.1566e-014 -9.74045e-015
lhumerus -45.1423 9.97899 69.8669
lradius 37.8435
lwrist -7.685
lhand -22.5987 28.7254
lfingers 7.12502
lthumb 3.83063 58.6708
rfemur -35.8171 -0.982696 28.6537
rtibia 20.4954
rfoot -14.6831 -18.6516
rtoes -32.0284
lfemur 1.76487 -23.5037 -31.1705
ltibia 2.94863
lfoot -35.1548 1.49418
ltoes -43.032
51
root -24.7015 15.7679 1.27374 -160.22 79.4696 -173.549
lowerback 10.825 1.70422 -2.51835
upperback -7.55411 2.09015 0.578822
thorax -14.6208 1.32254 1.56154
lowerneck -16.883 -4.93952 3.61665
upperneck 33.9635 -7.1171 -0.996243
head 14.2867 -2.31411 -2.12195
rclavicle -4.92574e-015 1.09642e-014
rhumerus -45.0935 12.5698 -76.7444
rradius 29.2597
rwrist -7.45545
rhand -14.1608 -25.1273
rfingers 7.12502
rthumb 11.9741 -54.7648
lclavicle -4.92574e-015 1.09642e-014
lhumerus -44.9969 9.73093 70.268
lradius 38.2606
lwrist -7.55073
lhand -22.4443 28.256
lfingers 7.12502
lthumb 3.97976 58.1985
rfemur -36.48 -0.363317 28.5942
rtibia 19.0255
rfoot -14.8318 -18.391
rtoes -32.0826
lfemur 2.63102 -23.6584 -31.7648
ltibia 2.37244
lfoot -35.9481 1.77515
ltoes -42.587
52
root -24.5141 15.7309 1.24982 -161.728 80.3279 -175.117
lowerback 10.6846 1.18428 -3.91361
upperback -7.16786 1.24805 1.4882
thorax -14.1032 1.10934 3.5686
lowerneck -17.9588 -4.22794 3.38051
upperneck 34.1632 -5.81614 -1.79683
head 14.6317 -1.91073 -2.24103
rclavicle -3.37934e-015 1.98785e-016
rhumerus -44.4841 15.2859 -76.5914
rradius 29.1286
rwrist -9.5077
rhand -16.1919 -23.9999
rfingers 7.12502
rthumb 10.015 -53.7416
lclavicle -3.37934e-015 1.98785e-016
lhumerus -45.198 11.8119 70.7088
lradius 38.7642
lwrist -7.90044
lhand -22.0404 28.6589
lfingers 7.12502
lthumb 4.36979 58.5939
rfemur -36.473 0.112145 28.3395
rtibia 17.8215
rfoot -15.2202 -18.0715
rtoes -30.7081
lfemur 4.07496 -24.0744 -32.9328
ltibia 1.72995
lfoot -37.1007 2.17102
ltoes -42.1531
53
root -24.3183 15.6944 1.23182 -163.114 81.0817 -176.545
lowerback 10.6581 1.02224 -4.41095
upperback -7.03474 0.9563 1.63291
thorax -13.92 1.02028 4.07989
lowerneck -18.3043 -3.93893 3.43051
upperneck 34.2818 -5.39012 -1.93495
head 14.7736 -1.74284 -2.25055
rclavicle -3.55825e-014 -4.17448e-015
rhumerus -45.267 16.4897 -77.3567
rradius 29.0884
rwrist -13.7097
rhand -20.7204 -20.1381
rfingers 7.12502
rthumb 5.64434 -50.0429
lclavicle -3.55825e-014 -4.17448e-015
lhumerus -45.1673 11.5532 71.2002
lradius 39.3345
lwrist -7.44188
lhand -21.7679 29.3053
lfingers 7.12502
lthumb 4.63285 59.2346
rfemur -36.197 0.827759 28.0799
rtibia 17.0112
rfoot -16.5133 -17.975
rtoes -26.8786
lfemur 5.31775 -24.1152 -33.8932
ltibia 1.38785
lfoot -37.9946 2.20218
ltoes -42.3513
54
root -24.1187 15.6604 1.22259 -163.264 81.6974 -176.752
lowerback 10.6883 0.997967 -4.33592
upperback -7.0124 0.917372 1.51688
thorax -13.9021 0.984962 3.91626
lowerneck -18.4198 -3.85218 3.74338
upperneck 34.3231 -5.35002 -2.04013
head 14.8051 -1.70104 -2.34608
rclavicle 1.13307e-014 -3.4191e-014
rhumerus -45.8006 15.6287 -77.1569
rradius 29.0982
rwrist -13.6103
rhand -20.4607 -20.5452
rfingers 7.12502
rthumb 5.89508 -50.4432
lclavicle 1.13307e-014 -3.4191e-014
lhumerus -44.8607 10.5886 71.5818
lradius 39.5955
lwrist -6.92631
lhand -22.0282 29.4881
lfingers 7.12502
lthumb 4.3815 59.4228
rfemur -35.8045 1.66957 28.1298
rtibia 16.8022
rfoot -13.5251 -18.6881
rtoes -32.7311
lfemur 6.23643 -23.8075 -34.3794
ltibia 1.385
lfoot -38.3695 2.94315
ltoes -43.912
55
root -23.9046 15.625 1.21457 -162.45 82.2322 -175.911
lowerback 10.6782 0.952216 -4.02729
upperback -6.96739 0.895473 1.43996
thorax -13.8277 0.936116 3.66008
lowerneck -18.4988 -3.79706 4.02183
upperneck 34.3578 -5.32455 -2.19456
head 14.8236 -1.67756 -2.45725
rclavicle 1.45361e-014 2.24627e-014
rhumerus -46.1149 14.8304 -76.9885
rradius 28.7218
rwrist -13.5876
rhand -20.6929 -20.4098
rfingers 7.12502
rthumb 5.67081 -50.3139
lclavicle 1.45361e-014 2.24627e-014
lhumerus -44.3878 10.0646 71.7186
lradius 39.5505
lwrist -7.16253
lhand -22.3398 29.6302
lfingers 7.12502
lthumb 4.08063 59.5709
rfemur -35.1256 2.24522 28.5605
rtibia 17.0286
rfoot -14.4092 -20.2064
rtoes -34.6723
lfemur 7.20877 -23.5186 -34.7471
ltibia 1.58871
lfoot -38.8098 3.10652
ltoes -44.3633
56
root -23.6752 15.5859 1.21001 -161.396 82.73 -174.815
lowerback 10.6243 0.896763 -3.67348
upperback -6.98071 0.869158 1.34222
thorax -13.7934 0.883106 3.35647
lowerneck -18.3834 -3.79457 4.26038
upperneck 34.427 -5.37412 -2.25958
head 14.8158 -1.67394 -2.53152
rclavicle 6.78353e-015 9.93923e-016
rhumerus -46.5644 13.9778 -76.866
rradius 28.3022
rwrist -13.4115
rhand -20.6428 -19.7367
rfingers 7.12502
rthumb 5.71925 -49.6395
lclavicle 6.78353e-015 9.93923e-016
lhumerus -44.3241 9.29669 71.8643
lradius 39.8644
lwrist -7.07736
lhand -22.487 29.9817
lfingers 7.12502
lthumb 3.93853 59.925
rfemur -34.177 2.69322 29.0696
rtibia 17.2687
rfoot -16.2598 -20.0612
rtoes -32.3508
lfemur 8.12275 -23.0405 -35.0637
ltibia 2.02069
lfoot -39.2822 4.17942
ltoes -46.7698
57
root -23.434 15.5448 1.21158 -160.298 83.2148 -173.71
lowerback 10.5723 0.82466 -3.37306
upperback -7.09767 0.814654 1.24538
thorax -13.8827 0.828129 3.09082
lowerneck -18.2013 -3.66833 4.4985
upperneck 34.548 -5.22153 -2.33745
head 14.8264 -1.58161 -2.57578
rclavicle 3.27995e-015 -1.78906e-015
rhumerus -47.3036 13.1854 -76.8312
rradius 28.0788
rwrist -13.1864
rhand -20.1805 -19.4612
rfingers 7.12502
rthumb 6.16554 -49.3514
lclavicle 3.27995e-015 -1.78906e-015
lhumerus -44.3981 8.56641 71.9034
lradius 40.0765
lwrist -6.87135
lhand -22.7871 30.4989
lfingers 7.12502
lthumb 3.64874 60.4474
rfemur -33.1148 3.08166 29.5246
rtibia 17.25
rfoot -19.7837 -19.1541
rtoes -25.3518
lfemur 8.79546 -22.3042 -35.2178
ltibia 2.7516
lfoot -39.5577 5.11116
ltoes -49.4785
58
root -23.1876 15.5029 1.21396 -158.292 83.6171 -171.702
lowerback 10.4831 0.721699 -2.99429
upperback -7.2162 0.745215 1.24318
thorax -13.9508 0.764266 2.88979
lowerneck -18.1363 -3.56083 4.69
upperneck 34.7897 -5.0325 -2.56055
head 14.9172 -1.49463 -2.67388
rclavicle -2.13694e-015 -8.05078e-015
rhumerus -48.0219 12.7623 -76.8935
rradius 27.9768
rwrist -13.3179
rhand -20.1019 -19.4843
rfingers 7.12502
rthumb 6.24147 -49.3724
lclavicle -2.13694e-015 -8.05078e-015
lhumerus -44.5137 8.06295 71.9432
lradius 40.2736
lwrist -6.77753
lhand -23.1221 31.1092
lfingers 7.12502
lthumb 3.32515 61.0631
rfemur -32.2169 3.18624 30.0745
rtibia 17.2358
rfoot -13.6464 -18.6453
rtoes -30.3412
lfemur 9.23606 -21.6946 -35.1774
ltibia 3.80265
lfoot -39.3963 6.13808
ltoes -52.1694
59
root -22.9349 15.465 1.21453 -155.357 83.9122 -168.731
lowerback 10.3332 0.618949 -2.4534
upperback -7.27961 0.706386 1.26885
thorax -13.916 0.697354 2.62121
lowerneck -18.2161 -3.49186 4.96428
upperneck 35.0952 -4.86054 -3.00223
head 15.0594 -1.43308 -2.88801
rclavicle 1.83379e-014 1.93815e-014
rhumerus -48.5737 12.5476 -77.0408
rradius 27.8173
rwrist -13.5387
rhand -20.4136 -19.2727
rfingers 7.12502
rthumb 5.94049 -49.1694
lclavicle 1.83379e-014 1.93815e-014
lhumerus -44.6225 7.68647 72.0495
lradius 40.5151
lwrist -6.51476
lhand -23.3039 31.2835
lfingers 7.12502
lthumb 3.14959 61.24
rfemur -31.7529 2.98278 30.7257
rtibia 17.9859
rfoot -14.2816 -19.0782
rtoes -28.3478
lfemur 9.2611 -20.418 -34.7424
ltibia 5.53367
lfoot -38.581 6.71982
ltoes -54.7711
60
root -22.6751 15.437 1.21696 -151.12 84.1649 -164.456
lowerback 10.1999 0.529138 -1.79237
upperback -7.38179 0.702641 1.27448
thorax -13.9385 0.635853 2.25491
lowerneck -18.2786 -3.45261 5.2218
upperneck 35.5006 -4.76096 -3.3252
head 15.2499 -1.37925 -3.0666
rclavicle 5.87657e-015 -2.59414e-014
rhumerus -49.1667 12.2834 -77.2542
rradius 27.5572
rwrist -13.36
rhand -20.7206 -18.5926
rfingers 7.12502
rthumb 5.64414 -48.4975
lclavicle 5.87657e-015 -2.59414e-014
lhumerus -44.8769 7.3427 72.0572
lradius 40.7627
lwrist -6.10635
lhand -23.4158 31.1226
lfingers 7.12502
lthumb 3.04152 61.0806
rfemur -31.6814 2.53897 31.5553
rtibia 19.6042
rfoot -14.6969 -18.4018
rtoes -26.0289
lfemur 8.65761 -17.9033 -33.6439
ltibia 8.11298
lfoot -37.1724 6.60451
ltoes -57.2746
61
root -22.4124 15.4218 1.22182 -144.492 84.4218 -157.827
lowerback 10.091 0.455047 -0.943073
upperback -7.55965 0.753569 1.27489
thorax -14.067 0.583726 1.7651
lowerneck -18.2688 -3.43668 5.35839
upperneck 36.0402 -4.70413 -3.46168
head 15.5015 -1.32161 -3.15683
rclavicle 1.81857e-015 -4.77083e-015
rhumerus -49.88 11.8223 -77.4049
rradius 27.3828
rwrist -13.0379
rhand -20.9303 -17.9389
rfingers 7.12502
rthumb 5.44164 -47.849
lclavicle 1.81857e-015 -4.77083e-015
lhumerus -45.3795 6.88943 71.9647
lradius 41.0613
lwrist -5.56919
lhand -23.4317 30.6944
lfingers 7.12502
lthumb 3.02623 60.6527
rfemur -31.4604 1.98378 32.6566
rtibia 21.0878
rfoot -13.979 -17.702
rtoes -26.5361
lfemur 7.57321 -14.7618 -32.0167
ltibia 11.0775
lfoot -35.1471 6.6758
ltoes -59.742
62
root -22.1529 15.4194 1.22932 -136.54 84.7124 -149.882
lowerback 9.99101 0.431589 -0.0371211
upperback -7.72102 0.876255 1.23339
thorax -14.183 0.554248 1.18169
lowerneck -17.7899 -3.44711 5.41157
upperneck 36.0059 -4.66509 -3.53302
head 15.3689 -1.309 -3.17117
rclavicle -6.79828e-015 -1.11816e-014
rhumerus -50.4803 11.1072 -77.3702
rradius 27.2617
rwrist -12.6799
rhand -20.6886 -17.8086
rfingers 7.12502
rthumb 5.67501 -47.7126
lclavicle -6.79828e-015 -1.11816e-014
lhumerus -45.8597 6.56263 71.7789
lradius 41.2157
lwrist -5.05524
lhand -23.5215 30.3476
lfingers 7.12502
lthumb 2.93946 60.3071
rfemur -30.6773 1.63145 33.7151
rtibia 21.6648
rfoot -13.4366 -16.5387
rtoes -25.3657
lfemur 5.93403 -10.3195 -30.106
ltibia 16.0961
lfoot -33.1976 5.27935
ltoes -62.0093
